Coordinates
version=1
nRows=16
nColumns=63
inDegrees=yes

Units are S.I. units (second, meters, Newtons, ...)
If the header above contains a line with 'inDegrees', this indicates whether rotational values are in degrees (yes) or radians (no).

endheader
time	pelvis_tilt	pelvis_list	pelvis_rotation	pelvis_tx	pelvis_ty	pelvis_tz	hip_flexion_r	hip_adduction_r	hip_rotation_r	knee_angle_r	knee_angle_r_beta	ankle_angle_r	subtalar_angle_r	mtp_angle_r	hip_flexion_l	hip_adduction_l	hip_rotation_l	knee_angle_l	knee_angle_l_beta	ankle_angle_l	subtalar_angle_l	mtp_angle_l	L5_S1_Flex_Ext	L5_S1_Lat_Bending	L5_S1_axial_rotation	L4_L5_Flex_Ext	L4_L5_Lat_Bending	L4_L5_axial_rotation	L3_L4_Flex_Ext	L3_L4_Lat_Bending	L3_L4_axial_rotation	L2_L3_Flex_Ext	L2_L3_Lat_Bending	L2_L3_axial_rotation	L1_L2_Flex_Ext	L1_L2_Lat_Bending	L1_L2_axial_rotation	L1_T12_Flex_Ext	L1_T12_Lat_Bending	L1_T12_axial_rotation	Abs_r3	Abs_r2	Abs_r1	Abs_t1	Abs_t2	neck_flexion	neck_bending	neck_rotation	arm_flex_r	arm_add_r	arm_rot_r	elbow_flex_r	pro_sup_r	wrist_flex_r	wrist_dev_r	arm_flex_l	arm_add_l	arm_rot_l	elbow_flex_l	pro_sup_l	wrist_flex_l	wrist_dev_l
1.600000	-1.173054	-2.055001	94.431536	0.251249	0.683764	0.657305	14.492762	-6.256412	-12.562691	38.882854	0.678634	24.808384	14.835951	0.000000	14.665187	-6.301947	-14.577980	33.958360	0.592685	29.197039	18.142571	0.000000	-0.758362	0.071444	-0.662101	-1.408354	0.095021	-0.703482	-1.245913	0.173710	-0.703482	-0.866732	0.173710	-0.579338	-0.704215	0.145689	-0.537957	-0.433328	0.110667	-0.496576	-5.416903	0.808192	-3.682408	0.000000	0.000000	-6.396558	0.879080	-1.852474	22.197689	-23.159873	59.007257	49.659284	75.779965	-13.193879	3.188503	-4.340074	-40.006001	38.154072	47.297172	79.569289	-4.897048	0.208400
1.622222	-1.215502	-2.024597	94.360715	0.251386	0.683838	0.656994	14.694508	-6.229399	-12.378720	39.191641	0.684023	24.586699	14.312369	0.000000	14.573422	-6.228496	-14.600986	33.840933	0.590636	29.472444	18.105164	0.000000	-0.747979	0.069334	-0.707052	-1.389073	0.092214	-0.751242	-1.228855	0.168578	-0.751242	-0.854866	0.168578	-0.618670	-0.694574	0.141385	-0.574479	-0.427395	0.107398	-0.530289	-5.342743	0.784317	-3.932409	0.000000	0.000000	-6.281209	1.050289	-1.382441	23.511114	-23.428814	61.418299	49.214668	72.860808	-13.117533	3.358447	-4.701611	-39.986272	38.035728	47.346626	79.266470	-4.776614	0.246863
1.644444	-1.213944	-2.007898	94.227338	0.251667	0.684322	0.656300	14.911273	-6.103113	-12.127841	39.454553	0.688612	24.187614	13.639930	0.000000	14.394908	-6.217697	-14.732037	33.620695	0.586792	29.611416	18.051624	0.000000	-0.734930	0.070684	-0.718548	-1.364839	0.094010	-0.763458	-1.207417	0.171862	-0.763458	-0.839952	0.171862	-0.628730	-0.682456	0.144140	-0.583821	-0.419939	0.109490	-0.538911	-5.249532	0.799597	-3.996351	0.000000	0.000000	-6.155293	1.251160	-1.044657	24.231829	-23.920294	63.148176	49.517008	69.738418	-12.331050	4.087378	-4.732745	-40.031959	38.643552	47.508956	79.230743	-4.641436	0.350266
1.666667	-1.201867	-2.023501	94.011209	0.252177	0.685195	0.655210	15.165668	-5.904397	-11.770485	39.677481	0.692503	23.635534	12.830791	0.000000	14.137090	-6.238928	-14.999996	33.286115	0.580952	29.577072	17.990907	0.000000	-0.717972	0.069515	-0.702497	-1.333346	0.092455	-0.746403	-1.179557	0.169018	-0.746403	-0.820570	0.169018	-0.614685	-0.666709	0.141754	-0.570778	-0.410249	0.107678	-0.526872	-5.128404	0.786364	-3.907075	0.000000	0.000000	-5.982234	1.475816	-0.815459	24.421236	-24.588981	64.210041	50.469697	66.599030	-11.045649	5.286342	-4.623527	-40.164873	39.543430	47.779552	79.460082	-4.284785	0.640397
1.688889	-1.158617	-2.083222	93.735051	0.252850	0.686396	0.653724	15.452658	-5.625774	-11.347978	39.844792	0.695423	22.948391	11.940294	0.000000	13.836721	-6.307717	-15.368185	32.868479	0.573663	29.361707	17.912083	0.000000	-0.696119	0.068757	-0.665481	-1.292763	0.091446	-0.707073	-1.143654	0.167175	-0.707073	-0.795595	0.167175	-0.582296	-0.646416	0.140208	-0.540703	-0.397763	0.106504	-0.499111	-4.972310	0.777789	-3.701205	0.000000	0.000000	-5.731293	1.706459	-0.651482	24.128296	-25.391453	64.621610	51.923829	63.319991	-9.423678	6.751533	-4.483837	-40.296570	40.504642	48.072779	79.959285	-3.905325	1.067668
1.711111	-1.097087	-2.187246	93.407628	0.253685	0.687866	0.651878	15.764169	-5.291769	-10.880289	39.956354	0.697370	22.153229	11.007111	0.000000	13.506429	-6.409121	-15.823298	32.376820	0.565082	28.958380	17.828524	0.000000	-0.669989	0.066195	-0.608138	-1.244236	0.088040	-0.646147	-1.100724	0.160947	-0.646147	-0.765730	0.160947	-0.532121	-0.622151	0.134986	-0.494112	-0.382832	0.102537	-0.456103	-4.785662	0.748815	-3.382281	0.000000	0.000000	-5.375425	1.950489	-0.585743	23.389839	-26.276041	64.409323	53.704566	60.480967	-7.676382	8.178331	-4.316810	-40.407437	41.457269	48.346154	80.697937	-3.500301	1.641204
1.733333	-1.009790	-2.332091	93.045501	0.254631	0.689565	0.649720	16.082088	-4.909522	-10.399009	39.997562	0.698089	21.266009	10.063386	0.000000	13.167096	-6.547072	-16.333930	31.833736	0.555604	28.385250	17.749982	0.000000	-0.639931	0.063637	-0.535143	-1.188415	0.084637	-0.568589	-1.051342	0.154726	-0.568589	-0.731377	0.154726	-0.468250	-0.594240	0.129768	-0.434803	-0.365656	0.098573	-0.401357	-4.570960	0.719871	-2.976303	0.000000	0.000000	-4.923332	2.206970	-0.593681	22.311740	-27.282953	63.746130	55.708481	58.538273	-6.015399	9.443068	-4.171517	-40.495163	42.327799	48.619524	81.564968	-3.089956	2.357032
1.755556	-0.889331	-2.519503	92.666898	0.255631	0.691455	0.647299	16.395386	-4.490419	-9.949724	39.956977	0.697381	20.302830	9.141763	0.000000	12.844776	-6.725381	-16.872827	31.263107	0.545644	27.668565	17.680834	0.000000	-0.604835	0.063627	-0.446866	-1.123239	0.084624	-0.474796	-0.993684	0.154704	-0.474796	-0.691266	0.154704	-0.391008	-0.561650	0.129749	-0.363079	-0.345603	0.098559	-0.335150	-4.320277	0.719765	-2.485337	0.000000	0.000000	-4.385448	2.464629	-0.681232	20.926099	-28.502539	62.703036	57.916854	57.787409	-4.399388	10.592990	-4.083187	-40.596261	43.111377	48.959592	82.438129	-2.694166	3.116026
1.777778	-0.740984	-2.733283	92.304633	0.256630	0.693545	0.644651	16.661994	-4.056844	-9.587263	39.808800	0.694795	19.296735	8.296184	0.000000	12.535608	-6.928582	-17.395612	30.667490	0.535249	26.819727	17.621684	0.000000	-0.565967	0.067670	-0.347784	-1.051057	0.090001	-0.369520	-0.929827	0.164533	-0.369520	-0.646844	0.164533	-0.304311	-0.525557	0.137992	-0.282574	-0.323393	0.104821	-0.260838	-4.042645	0.765495	-1.934269	0.000000	0.000000	-3.787486	2.720149	-0.790272	19.254016	-30.067795	61.406932	60.381817	58.326266	-2.864316	11.658169	-4.078734	-40.793693	43.887359	49.480410	83.157598	-2.431640	3.781432
1.800000	-0.573575	-2.970443	91.964770	0.257617	0.695813	0.641843	16.869661	-3.629828	-9.337971	39.547059	0.690226	18.277084	7.580670	0.000000	12.250135	-7.144334	-17.885133	30.063320	0.524704	25.863201	17.569239	0.000000	-0.521973	0.076301	-0.228803	-0.969356	0.101480	-0.243103	-0.857549	0.185517	-0.243103	-0.596563	0.185517	-0.200202	-0.484704	0.155592	-0.185902	-0.298255	0.118190	-0.171602	-3.728401	0.863127	-1.272533	0.000000	0.000000	-3.149299	2.974570	-0.942223	17.097594	-32.092413	59.710183	63.174911	60.172663	-1.287250	12.556214	-4.027218	-41.198763	44.895955	50.297846	83.640485	-2.332409	4.210484
1.822222	-0.413632	-3.194017	91.652769	0.258622	0.698281	0.638887	16.955200	-3.234955	-9.214135	39.143468	0.683182	17.294433	7.041475	0.000000	11.937395	-7.342060	-18.328694	29.425674	0.513575	24.827600	17.526344	0.000000	-0.475148	0.087413	-0.109722	-0.882397	0.116260	-0.116580	-0.780621	0.212537	-0.116580	-0.543047	0.212537	-0.096007	-0.441222	0.178253	-0.089149	-0.271500	0.135403	-0.082292	-3.393935	0.988837	-0.610242	0.000000	0.000000	-2.529696	3.219781	-1.006714	14.773535	-34.757818	58.199960	66.253200	62.434739	0.331454	13.103041	-4.229789	-41.923179	45.892727	51.508123	83.658711	-2.441813	4.262074
1.844444	-0.254611	-3.383578	91.414671	0.259552	0.700914	0.635873	16.884421	-2.881157	-9.262081	38.590437	0.673530	16.384446	6.724412	0.000000	11.600738	-7.516927	-18.670882	28.772479	0.502174	23.761748	17.491418	0.000000	-0.425958	0.104075	0.006863	-0.791047	0.138420	0.007292	-0.699807	0.253048	0.007292	-0.486828	0.253048	0.006005	-0.395545	0.212229	0.005576	-0.243393	0.161212	0.005147	-3.042578	1.177315	0.038170	0.000000	0.000000	-1.965695	3.410941	-0.996890	11.659560	-38.025389	56.353878	69.538227	64.556137	2.103737	13.245902	-4.471341	-43.036556	47.149045	53.162000	83.059595	-2.752502	3.887894
1.866667	-0.121280	-3.525504	91.222223	0.260460	0.703662	0.632904	16.664124	-2.580355	-9.410965	37.911306	0.661677	15.582763	6.610240	0.000000	11.227706	-7.652106	-18.941979	28.107500	0.490568	22.713687	17.475840	0.000000	-0.375225	0.123568	0.126984	-0.696830	0.164346	0.134920	-0.616457	0.300443	0.134920	-0.428844	0.300443	0.111111	-0.348434	0.251980	0.103174	-0.214403	0.191407	0.095238	-2.680193	1.397827	0.706246	0.000000	0.000000	-1.487413	3.526137	-0.944084	7.421654	-41.718316	53.841062	72.917115	66.272026	3.955112	13.137036	-4.502513	-44.561331	48.890928	55.235683	81.852926	-3.132439	3.078177
1.888889	-0.023696	-3.582479	91.100507	0.261321	0.706537	0.630007	16.247700	-2.336765	-9.653137	37.098277	0.647487	14.894817	6.678203	0.000000	10.772084	-7.727244	-19.090162	27.399675	0.478215	21.706429	17.477164	0.000000	-0.327565	0.145074	0.228490	-0.608320	0.192949	0.242770	-0.538156	0.352734	0.242770	-0.374374	0.352734	0.199928	-0.304176	0.295835	0.185648	-0.187170	0.224720	0.171367	-2.339761	1.641109	1.270790	0.000000	0.000000	-1.142962	3.557815	-0.719670	2.352999	-45.743030	50.905822	76.251293	67.609954	5.820921	12.824835	-4.484262	-46.478440	50.864557	57.700589	79.935390	-3.639303	2.104888
1.911111	0.020779	-3.576441	91.063998	0.262146	0.709444	0.627276	15.681485	-2.181928	-10.000443	36.198666	0.631786	14.329108	6.929402	0.000000	10.272014	-7.720608	-19.097297	26.659036	0.465288	20.759487	17.500150	0.000000	-0.281098	0.164133	0.319941	-0.522027	0.218297	0.339937	-0.461815	0.399073	0.339937	-0.321267	0.399073	0.279948	-0.261027	0.334700	0.259952	-0.160619	0.254242	0.239955	-2.007853	1.856707	1.779414	0.000000	0.000000	-0.900591	3.519277	-0.509127	-3.437125	-49.833631	47.508840	79.412287	68.545490	7.592973	12.318663	-4.152468	-48.702613	53.186021	60.389646	77.921302	-3.879011	0.961335
1.933333	0.044436	-3.485780	91.125621	0.262861	0.712364	0.624694	14.941866	-2.066592	-10.423248	35.202063	0.614392	13.848304	7.278778	0.000000	9.696503	-7.658487	-18.942965	25.862997	0.451394	19.902504	17.553536	0.000000	-0.238128	0.185851	0.387222	-0.442227	0.247182	0.411424	-0.391220	0.451878	0.411424	-0.272156	0.451878	0.338820	-0.221126	0.378988	0.314618	-0.136066	0.287883	0.290417	-1.700924	2.102385	2.153615	0.000000	0.000000	-0.787406	3.385913	-0.205807	-9.672362	-53.889205	43.826885	82.373275	69.013638	9.119964	11.911365	-3.552744	-51.100710	55.727146	63.222570	76.110284	-3.817426	0.001888
